<?xml version="1.0" encoding="utf-8"?>
<!-- Generator: Adobe Illustrator 24.2.0, SVG Export Plug-In . SVG Version: 6.00 Build 0)  -->
<svg version="1.1" id="Laag_1" xmlns="http://www.w3.org/2000/svg" xmlns:xlink="http://www.w3.org/1999/xlink" x="0px" y="0px"
	 viewBox="0 0 198.3 204.6" style="enable-background:new 0 0 198.3 204.6;" xml:space="preserve">
<style type="text/css">
	.st0{fill:#2E5A51;}
</style>
<g id="Layer_2">
	<g id="Layer_1-2">
		<path class="st0" d="M49.6,179.6h46.3c3.6,0.1,6.5-2.8,6.6-6.4c0,0,0-0.1,0-0.1v-19.8h34.3l17.5,51.3h44L125.6,0H67.7
			c-3.6,0-6.6,3-6.6,6.6v31.6c0,3.6-3,6.6-6.6,6.6h-7.2c-3.6,0.1-6.5,3-6.6,6.6v58.8c-0.1,3.6-3,6.5-6.6,6.6H27
			c-3.6-0.1-6.5,2.8-6.6,6.4c0,0.1,0,0.1,0,0.2v21.1c-0.1,3.7-3,6.6-6.7,6.6H6.6c-3.6,0.1-6.5,3-6.6,6.6V198c0.1,3.6,3,6.5,6.6,6.6
			h29.7c3.7,0,6.6-2.9,6.7-6.6v-11.8C43,182.6,46,179.6,49.6,179.6z M69.9,87.8h7.2c3.6-0.1,6.5-3,6.6-6.6V53.7
			c-0.1-3.6,2.8-6.5,6.4-6.6c0.1,0,0.1,0,0.2,0h12.2l22.7,69.7H88c-3.6,0-6.6,3-6.6,6.6v21.1c0,3.6-3,6.6-6.6,6.6c0,0,0,0,0,0h-4.9
			c-3.6-0.1-6.5-3-6.6-6.6V94.4C63.3,90.8,66.3,87.8,69.9,87.8z"/>
	</g>
</g>
</svg>
